<mxfile host="app.diagrams.net" agent="Mozilla/5.0 (Windows NT 10.0; Win64; x64) AppleWebKit/537.36 (KHTML, like Gecko) Chrome/131.0.0.0 Safari/537.36" version="25.0.3">
  <diagram name="‫עמוד-1‬" id="1ls0aBMXRplDpZ0QgJOw">
    <mxGraphModel dx="1985" dy="1050" grid="1" gridSize="10" guides="1" tooltips="1" connect="1" arrows="1" fold="1" page="1" pageScale="1" pageWidth="2339" pageHeight="3300" math="0" shadow="0">
      <root>
        <mxCell id="0" />
        <mxCell id="1" parent="0" />
        <mxCell id="WmXdKknOY4IRAIHPua-u-20" value="" style="rounded=0;whiteSpace=wrap;html=1;" vertex="1" parent="1">
          <mxGeometry x="220" y="80" width="1040" height="700" as="geometry" />
        </mxCell>
        <mxCell id="WmXdKknOY4IRAIHPua-u-1" value="&lt;font style=&quot;font-size: 18px;&quot;&gt;client interface&lt;/font&gt;" style="rounded=0;whiteSpace=wrap;html=1;" vertex="1" parent="1">
          <mxGeometry x="300" y="130" width="200" height="110" as="geometry" />
        </mxCell>
        <mxCell id="WmXdKknOY4IRAIHPua-u-2" value="&lt;font style=&quot;font-size: 18px;&quot;&gt;store interface&lt;/font&gt;" style="rounded=0;whiteSpace=wrap;html=1;" vertex="1" parent="1">
          <mxGeometry x="570" y="130" width="200" height="110" as="geometry" />
        </mxCell>
        <mxCell id="WmXdKknOY4IRAIHPua-u-3" value="&lt;font style=&quot;font-size: 18px;&quot;&gt;support interface&lt;/font&gt;" style="rounded=0;whiteSpace=wrap;html=1;" vertex="1" parent="1">
          <mxGeometry x="840" y="130" width="200" height="110" as="geometry" />
        </mxCell>
        <mxCell id="WmXdKknOY4IRAIHPua-u-4" value="&lt;span style=&quot;font-size: 18px;&quot;&gt;backend component&lt;/span&gt;" style="rounded=0;whiteSpace=wrap;html=1;" vertex="1" parent="1">
          <mxGeometry x="580" y="420" width="200" height="110" as="geometry" />
        </mxCell>
        <mxCell id="WmXdKknOY4IRAIHPua-u-7" value="" style="endArrow=classic;html=1;rounded=0;entryX=0.629;entryY=-0.03;entryDx=0;entryDy=0;exitX=0.5;exitY=1;exitDx=0;exitDy=0;entryPerimeter=0;" edge="1" parent="1" source="WmXdKknOY4IRAIHPua-u-3" target="WmXdKknOY4IRAIHPua-u-4">
          <mxGeometry width="50" height="50" relative="1" as="geometry">
            <mxPoint x="940" y="430" as="sourcePoint" />
            <mxPoint x="990" y="380" as="targetPoint" />
          </mxGeometry>
        </mxCell>
        <mxCell id="WmXdKknOY4IRAIHPua-u-8" value="" style="endArrow=classic;html=1;rounded=0;entryX=0.45;entryY=0;entryDx=0;entryDy=0;exitX=0.5;exitY=1;exitDx=0;exitDy=0;entryPerimeter=0;" edge="1" parent="1" source="WmXdKknOY4IRAIHPua-u-2" target="WmXdKknOY4IRAIHPua-u-4">
          <mxGeometry width="50" height="50" relative="1" as="geometry">
            <mxPoint x="950" y="250" as="sourcePoint" />
            <mxPoint x="690" y="430" as="targetPoint" />
          </mxGeometry>
        </mxCell>
        <mxCell id="WmXdKknOY4IRAIHPua-u-9" value="" style="endArrow=classic;html=1;rounded=0;entryX=0.25;entryY=0;entryDx=0;entryDy=0;exitX=0.5;exitY=1;exitDx=0;exitDy=0;" edge="1" parent="1" target="WmXdKknOY4IRAIHPua-u-4">
          <mxGeometry width="50" height="50" relative="1" as="geometry">
            <mxPoint x="399.17" y="240" as="sourcePoint" />
            <mxPoint x="399.17" y="420" as="targetPoint" />
          </mxGeometry>
        </mxCell>
        <mxCell id="WmXdKknOY4IRAIHPua-u-11" value="&lt;span style=&quot;font-size: 18px;&quot;&gt;AI API&lt;/span&gt;" style="rounded=0;whiteSpace=wrap;html=1;" vertex="1" parent="1">
          <mxGeometry x="300" y="630" width="200" height="110" as="geometry" />
        </mxCell>
        <mxCell id="WmXdKknOY4IRAIHPua-u-12" value="&lt;span style=&quot;font-size: 18px;&quot;&gt;Delivery API&lt;/span&gt;" style="rounded=0;whiteSpace=wrap;html=1;" vertex="1" parent="1">
          <mxGeometry x="600" y="630" width="200" height="110" as="geometry" />
        </mxCell>
        <mxCell id="WmXdKknOY4IRAIHPua-u-14" value="" style="endArrow=classic;html=1;rounded=0;entryX=0.5;entryY=0;entryDx=0;entryDy=0;exitX=0.5;exitY=1;exitDx=0;exitDy=0;" edge="1" parent="1" target="WmXdKknOY4IRAIHPua-u-11">
          <mxGeometry width="50" height="50" relative="1" as="geometry">
            <mxPoint x="669.17" y="530" as="sourcePoint" />
            <mxPoint x="669.17" y="710" as="targetPoint" />
          </mxGeometry>
        </mxCell>
        <mxCell id="WmXdKknOY4IRAIHPua-u-15" value="&lt;span style=&quot;font-size: 18px;&quot;&gt;Pay API&lt;/span&gt;" style="rounded=0;whiteSpace=wrap;html=1;" vertex="1" parent="1">
          <mxGeometry x="880" y="630" width="200" height="110" as="geometry" />
        </mxCell>
        <mxCell id="WmXdKknOY4IRAIHPua-u-16" value="&lt;span style=&quot;font-size: 18px;&quot;&gt;DataBase&lt;/span&gt;" style="rounded=0;whiteSpace=wrap;html=1;" vertex="1" parent="1">
          <mxGeometry x="930" y="420" width="200" height="110" as="geometry" />
        </mxCell>
        <mxCell id="WmXdKknOY4IRAIHPua-u-17" value="" style="endArrow=classic;html=1;rounded=0;exitX=0.568;exitY=1.01;exitDx=0;exitDy=0;exitPerimeter=0;" edge="1" parent="1" source="WmXdKknOY4IRAIHPua-u-4">
          <mxGeometry width="50" height="50" relative="1" as="geometry">
            <mxPoint x="679.17" y="540" as="sourcePoint" />
            <mxPoint x="694" y="630" as="targetPoint" />
          </mxGeometry>
        </mxCell>
        <mxCell id="WmXdKknOY4IRAIHPua-u-18" value="" style="endArrow=classic;html=1;rounded=0;entryX=0.5;entryY=0;entryDx=0;entryDy=0;exitX=0.568;exitY=1.01;exitDx=0;exitDy=0;exitPerimeter=0;" edge="1" parent="1" target="WmXdKknOY4IRAIHPua-u-15">
          <mxGeometry width="50" height="50" relative="1" as="geometry">
            <mxPoint x="714" y="531" as="sourcePoint" />
            <mxPoint x="710" y="630" as="targetPoint" />
          </mxGeometry>
        </mxCell>
        <mxCell id="WmXdKknOY4IRAIHPua-u-19" value="" style="endArrow=classic;html=1;rounded=0;exitX=1;exitY=0.5;exitDx=0;exitDy=0;entryX=0;entryY=0.5;entryDx=0;entryDy=0;" edge="1" parent="1" source="WmXdKknOY4IRAIHPua-u-4" target="WmXdKknOY4IRAIHPua-u-16">
          <mxGeometry width="50" height="50" relative="1" as="geometry">
            <mxPoint x="810" y="480" as="sourcePoint" />
            <mxPoint x="810" y="579" as="targetPoint" />
          </mxGeometry>
        </mxCell>
      </root>
    </mxGraphModel>
  </diagram>
</mxfile>
